#!OML:ASF F:\VICON\USERDATA\INSTALL\rory3\rory3.ASF
:FULLY-SPECIFIED
:DEGREES
712
root 0.0529509 14.8975 8.91912 -83.349 -48.1033 97.9687
lowerback 9.18646 -5.26317 2.80773
upperback 0.0323064 -7.10907 -4.62751
thorax -6.05076 -3.72475 -5.3824
lowerneck -3.99537 9.58376 11.83
upperneck 38.427 3.45081 14.3375
head 14.2278 4.25465 4.16799
rclavicle 3.18055e-015 -6.04305e-014
rhumerus -137.375 -122.501 166.275
rradius 19.3001
rwrist 39.0247
rhand 18.9696 -9.24365
rfingers 7.12502
rthumb 43.5741 -33.2836
lclavicle 3.18055e-015 -6.04305e-014
lhumerus -4.98159 -6.85122 -0.201604
lradius 17.0195
lwrist -49.5358
lhand 13.5545 33.8779
lfingers 7.12502
lthumb 38.4893 59.5423
rfemur -85.4272 -58.9934 11.81
rtibia 79.1313
rfoot -31.6126 -16.0445
rtoes 24.7798
lfemur -8.57686 -24.9499 39.9857
ltibia 17.1268
lfoot -65.8981 -5.50659
ltoes 52.6437
713
root 0.053038 14.8639 8.90673 -83.8127 -47.7594 98.4071
lowerback 9.32569 -5.40326 2.52231
upperback -0.00884309 -7.31776 -4.49816
thorax -6.14408 -3.81632 -5.03654
lowerneck -4.49371 9.79285 11.5587
upperneck 39.2654 3.56668 14.2234
head 14.724 4.30197 4.29342
rclavicle -1.59028e-015 3.18055e-014
rhumerus -131.468 -121.095 160.921
rradius 19.3082
rwrist 41.2725
rhand 17.6744 -9.17494
rfingers 7.12502
rthumb 42.3628 -33.6423
lclavicle -1.59028e-015 3.18055e-014
lhumerus -5.31793 -5.9864 -0.409634
lradius 17.0794
lwrist -50.575
lhand 13.2849 33.8254
lfingers 7.12502
lthumb 38.2348 59.5604
rfemur -85.3718 -58.5756 11.1644
rtibia 79.5575
rfoot -31.9222 -15.9821
rtoes 25.4423
lfemur -8.03031 -28.0122 40.8296
ltibia 16.7372
lfoot -67.987 -8.59863
ltoes 52.8379
714
root 0.0507478 14.8538 8.85986 -84.5829 -46.9576 99.0148
lowerback 9.6102 -5.5476 1.67244
upperback -0.0596729 -7.61599 -4.51038
thorax -6.28185 -3.94092 -4.49807
lowerneck -4.40264 9.81968 11.2725
upperneck 39.3413 3.85817 13.7711
head 14.7008 4.33739 4.1807
rclavicle -5.24792e-014 2.8625e-014
rhumerus -125.629 -120.455 155.463
rradius 19.2166
rwrist 42.8014
rhand 16.2509 -8.96655
rfingers 7.12502
rthumb 41.0278 -33.8741
lclavicle -5.24792e-014 2.8625e-014
lhumerus -5.67817 -4.49205 -0.615583
lradius 17.1188
lwrist -52.1439
lhand 13.0334 34.0595
lfingers 7.12502
lthumb 37.9974 59.8594
rfemur -84.0486 -57.6528 8.92303
rtibia 79.7848
rfoot -32.6467 -15.9064
rtoes 26.7655
lfemur -7.49288 -30.5249 40.7129
ltibia 16.6993
lfoot -69.776 -10.0206
ltoes 52.9322
715
root 0.0481133 14.825 8.85057 -85.3033 -46.409 99.5677
lowerback 9.83478 -5.64396 1.13642
upperback -0.059203 -7.82521 -4.61295
thorax -6.37159 -4.03292 -4.25242
lowerneck -4.20216 9.70856 10.8813
upperneck 39.055 3.81739 13.8567
head 14.4772 4.25091 4.22463
rclavicle -6.36111e-015 -3.18055e-014
rhumerus -121.944 -120.367 152.006
rradius 18.9344
rwrist 43.5033
rhand 14.8903 -8.55327
rfingers 7.12502
rthumb 39.7484 -33.8547
lclavicle -6.36111e-015 -3.18055e-014
lhumerus -5.62839 -3.90179 -0.953123
lradius 17.1914
lwrist -52.5859
lhand 12.8034 34.1495
lfingers 7.12502
lthumb 37.7802 60.0082
rfemur -84.5078 -57.8913 8.62352
rtibia 80.1136
rfoot -32.5744 -15.2034
rtoes 26.4518
lfemur -7.07787 -31.3142 40.8892
ltibia 16.7323
lfoot -70.7651 -10.6847
ltoes 52.4498
716
root 0.0342759 14.8104 8.85318 -85.6847 -45.7011 100.138
lowerback 9.43157 -5.64295 0.817464
upperback -0.0558115 -7.89769 -4.96579
thorax -6.15745 -4.07633 -4.47335
lowerneck -4.25182 9.61524 11.1936
upperneck 39.2304 3.53803 13.7833
head 14.6194 4.15867 4.13065
rclavicle 3.81667e-014 -6.67916e-014
rhumerus -119.817 -120.267 149.928
rradius 18.3749
rwrist 43.9892
rhand 13.601 -7.7988
rfingers 7.12502
rthumb 38.5332 -33.4509
lclavicle 3.81667e-014 -6.67916e-014
lhumerus -5.19008 -3.63716 -1.37828
lradius 17.2658
lwrist -52.9541
lhand 12.0703 34.1672
lfingers 7.12502
lthumb 37.0872 60.209
rfemur -85.6224 -58.1866 8.84329
rtibia 80.231
rfoot -32.2931 -14.7471
rtoes 26.0024
lfemur -6.98925 -32.4228 40.7751
ltibia 16.9991
lfoot -71.4442 -12.3704
ltoes 52.1256
